<?xml version="1.0" encoding="utf-8"?>
<!-- Generator: Adobe Illustrator 21.0.0, SVG Export Plug-In . SVG Version: 6.00 Build 0)  -->
<svg version="1.1" id="Layer_1" xmlns="http://www.w3.org/2000/svg" xmlns:xlink="http://www.w3.org/1999/xlink" x="0px" y="0px"
	 viewBox="0 0 800 118" enable-background="new 0 0 800 118" xml:space="preserve">
<g id="Layer_2">
	<g>
		<g>
			<g>
				<path fill="#FAED36" d="M437.862,38.426c0-0.862,0-1.723-0.215-2.585c-1.4-21.543-16.48-32.207-45.348-32.207h-34.253v110.623
					h29.191V65.463l31.022,48.687l35.223-0.215l-33.607-47.61C431.938,59.646,437.862,50.383,437.862,38.426z M408.994,40.365
					c0,3.662-1.185,7.001-3.662,9.802c-2.585,3.124-6.463,4.739-11.526,4.739h-6.463V25.177h5.924
					c10.125,0,15.403,4.739,15.726,14.326V40.365L408.994,40.365z M345.119,66.863c-2.585-3.339-5.386-5.924-8.402-7.863
					c-3.016-1.723-4.739-2.801-4.847-3.016c1.185-0.539,3.016-1.723,5.278-3.447c2.262-1.723,4.416-4.524,6.678-8.402
					c1.723-3.124,2.801-7.001,2.801-11.418c0-0.646,0-1.616-0.215-2.262c-0.862-10.987-5.063-18.204-12.387-21.651
					c-7.54-3.447-18.204-5.278-31.668-5.278h-32.853v110.3l45.025,0.323c7.001,0,13.249-1.4,18.85-4.201
					c5.601-2.585,9.802-6.463,12.926-11.741c2.477-4.416,3.662-9.479,3.662-15.188c0-1.077,0-2.262-0.215-3.339
					C349.212,74.726,347.597,70.31,345.119,66.863z M296.54,24.854h6.786c3.985,0,7.325,0.646,9.802,1.939
					c2.477,1.185,3.662,3.985,4.201,8.079v1.4c0,3.124-1.185,5.817-3.662,7.648c-2.801,2.262-6.14,3.339-10.017,3.339h-7.001V24.854
					H296.54z M320.452,80.651c0,3.447-1.185,6.14-3.447,7.863c-2.585,2.047-6.678,3.016-12.387,3.016h-8.079V68.587h7.001
					c5.601,0,9.802,0.862,12.603,2.477c2.801,1.723,4.201,4.739,4.201,8.725v0.862L320.452,80.651L320.452,80.651z M716.521,3.634
					v27.252h27.252v83.156h28.544V30.886H800V3.634L716.521,3.634L716.521,3.634z M459.405,114.042h28.329V3.527h-28.329V114.042z
					 M676.666,45.105h-34.792V3.634h-29.622v110.408h29.622V70.633h34.792v43.409h29.729V3.634h-29.729V45.105z M550.747,71.387
					h22.189v16.48c-0.323,0.323-2.262,0.862-6.14,1.616c-3.878,0.862-7.001,1.185-9.587,1.185c-9.479,0-17.127-3.124-23.266-9.264
					c-6.14-6.14-9.263-13.788-9.263-23.051c0-5.278,1.4-10.341,3.985-15.08s6.14-8.617,10.448-11.741
					c4.416-3.016,9.048-4.524,14.218-4.739h1.4c8.617,0,16.265,2.801,22.943,8.186c5.601-7.863,10.125-14.218,15.726-21.866
					c-3.016-2.047-6.463-4.416-10.987-6.786c-6.786-3.662-16.265-5.386-28.006-5.386h-0.862c-10.664,0.215-20.25,2.585-29.191,7.863
					c-8.94,5.278-15.726,12.28-20.681,20.789c-5.063,8.725-7.648,18.419-7.863,29.083v0.539c0,10.341,2.585,19.927,7.648,28.652
					c5.278,8.94,12.387,16.05,21.866,21.328c9.263,5.278,19.389,7.863,30.806,7.863c7.325,0,14.542-0.862,21.328-2.477
					c6.786-1.616,12.387-3.447,16.804-5.386c4.416-1.939,6.678-3.124,7.001-3.447V48.659h-33.93L550.747,71.387z"/>
			</g>
		</g>
		<g>
			<g>
				<path fill="#FFFFFF" d="M116.44,71.926h28.545l17.342-24.344h-45.671V30.24h39.424l19.604-26.39H88.326v110.085h61.29
					l18.419-24.451h-51.488V71.926H116.44z M75.831,66.863c-2.585-3.339-5.386-5.924-8.402-7.648
					c-3.016-1.723-4.739-2.585-4.847-3.016c1.185-0.539,3.016-1.723,5.278-3.447c2.262-1.723,4.416-4.524,6.678-8.402
					c1.723-3.124,2.801-7.001,2.801-11.418c0-0.646,0-1.616-0.215-2.262C76.262,19.684,72.277,12.467,64.737,9.02
					S46.748,3.742,33.284,3.742H0v109.762l44.809,0.215c7.001,0,13.249-1.4,18.85-3.985c5.601-2.585,9.802-6.463,12.818-11.526
					c2.477-4.416,3.662-9.264,3.662-15.188c0-1.077,0-2.047-0.215-3.339C79.817,74.511,78.417,70.202,75.831,66.863z M27.467,24.854
					h6.678c3.985,0,7.217,0.646,9.802,1.939c2.262,1.185,3.662,3.878,3.985,7.863v1.4c0,3.124-1.185,5.817-3.447,7.648
					c-2.801,2.047-6.14,3.339-10.018,3.339h-7.001V24.854z M51.272,80.435c0,3.447-1.185,6.14-3.447,7.863
					c-2.585,1.939-6.678,3.016-12.28,3.016h-8.079V68.371h7.001c5.601,0,9.802,0.862,12.603,2.477
					c2.801,1.723,4.201,4.739,4.201,8.725V80.435z M185.162,3.634L166.635,30.24h35.546v83.802l28.329,0.215V30.24h27.467V3.634
					L185.162,3.634L185.162,3.634z"/>
			</g>
		</g>
	</g>
</g>
</svg>
